<svg viewBox="0 0 14 14" xmlns="http://www.w3.org/2000/svg"><path d="m8.1762994 8.766095-2.9430459-.61501c-.012563.024-.026063.0472-.041063.0692l2.6792293 3.90831.1616274-.16144.45582-2.83449c-.1550654-.06507-.2716918-.20101-.3125678-.36657zm-1.0736418-3.84719c-.1102515.16913-.3005672.28107-.5173205.28107-.033376 0-.065813-.003-.097689-.008l-1.342146 2.10003 3.5858061-1.54315c-.00113-.0144-.00431-.0279-.00431-.0427 0-.0302.00412-.0594.009-.0883l-1.6333382-.69845zm.097502-.38269 1.7374022.74288c.054938-.0429.1175639-.0748.1863778-.0941l.2855668-1.77565-1.0878919-1.0879-1.2245817 1.9161c.058688.0866.095064.18862.1031268.29869zm3.6405564.30431-1.090329-1.09051-.2370038 1.47227c.060376.0306.1141894.0712.1591899.12113zm-2.6122904 3.53781c.084939-.15356.2416912-.25969.4260065-.27394l.3131302-1.94759c-.024563-.0163-.046501-.0358-.068064-.0559l-3.6064312 1.55215c.00919.0377.015563.0761.018563.11606l2.9167956.6092zm2.9092954-3.24061-1.2615197.54282 3.1125487 1.33071.01125-.0113-1.862279-1.86228zm-2.2543476 4.00075-.3791311 2.3571 2.2014717-2.20148-1.5857119-.33113c-.060563.0789-.1417523.14007-.2366287.17551zm-4.2790045-.60601c-.079689 0-.1560024-.0137-.227441-.0379l-.7312615 1.14433-.2825669-.28238.6926359-1.08376c-.01725-.0212-.033-.0435-.047813-.0664l-1.2547696.5402-.2973797-.29738 1.373459-.5912-2.4831013-.51826-.3395678-.33975.1074392-.10744 2.8633572.59776c.033188-.0626.075376-.12019.1250645-.16951l-1.3897717-2.02709.2806918-.28069 1.4520227 2.11803c.051188-.0116.1042517-.0186.1590025-.0186.061313 0 .1207519.009.1775653.0232l1.3586461-2.12591c-.1065015-.111-.1723149-.26138-.1723149-.42732 0-.0488.00619-.096.016875-.14138l-1.6950264-.7247.2973797-.29737 1.6059625.68682c.1066894-.0877.2431912-.14044.3920686-.14044.070313 0 .1378148.0124.2010033.0341l1.2527067-1.96038-1.0391414-1.03914-6.0000938 6.0001 6.0000938 6.00009.5904468-.59045-2.6992923-3.93793c-.087939.0388-.1848779.0608-.2868795.0608zm4.7451365-2.29166-.3185672 1.97984c.1096889.0885.1828153.21807.1966903.36619l1.8080905.37745 1.655651-1.65565-2.9884215-1.27765c-.083814.11138-.2090657.18863-.3534431.20982z"/></svg>